# xmcd
#
# Track frame offsets:
#	150
#	18093
#	32658
#	48593
#	68895
#	81907
#	98498
#	111821
#	131602
#	145487
#	162035
#	174880
#	195899
#	211236
#	227608
#	240120
#
# Disc length: 3397 seconds
#
# Revision: 0
# Processed by: cddbd v1.4PL0 Copyright (c) Steve Scherf et al.
# Submitted via: audiograbber 1.80.04
#
DISCID=be0d4310
DTITLE=Charlie Landsborough - Songs From The Heart
DYEAR=1992
DGENRE=Country
TTITLE0=I Dreamed I Was In Heaven
TTITLE1=Still Blue
TTITLE2=Things That My Ears Can Do
TTITLE3=Walking On My Memeories
TTITLE4=Song Of My Heart
TTITLE5=All Over But The Crying
TTITLE6=One More Time
TTITLE7=Lily Of The Valley
TTITLE8=Lovers Chain
TTITLE9=You And Me
TTITLE10=Constantly
TTITLE11=I Cried
TTITLE12=You're Not The Only One
TTITLE13=Fireside Dreaming
TTITLE14=Summer Country Skies
TTITLE15=Close Your Eyes
EXTD=
EXTT0=
EXTT1=
EXTT2=
EXTT3=
EXTT4=
EXTT5=
EXTT6=
EXTT7=
EXTT8=
EXTT9=
EXTT10=
EXTT11=
EXTT12=
EXTT13=
EXTT14=
EXTT15=
PLAYORDER=
